<svg width="118" height="118" viewBox="0 0 118 118" fill="none" xmlns="http://www.w3.org/2000/svg">
<path opacity="0.15" d="M28.1846 111.406C28.1846 112.376 31.3947 113.306 37.1087 113.992C42.8227 114.677 50.5725 115.062 58.6533 115.062C66.7341 115.062 74.484 114.677 80.198 113.992C85.912 113.306 89.1221 112.376 89.1221 111.406C89.1221 110.437 85.912 109.507 80.198 108.821C74.484 108.135 66.7341 107.75 58.6533 107.75C50.5725 107.75 42.8227 108.135 37.1087 108.821C31.3947 109.507 28.1846 110.437 28.1846 111.406Z" fill="#45413C"/>
<path d="M81.7123 47.4462L81.3955 55.3925L54.0467 28.0194C52.9804 26.8913 51.5359 26.1956 49.9892 26.0652C48.4424 25.9348 46.9018 26.3789 45.6617 27.3125C44.9997 27.8484 44.4579 28.5177 44.0715 29.2769C43.6851 30.036 43.4629 30.8679 43.4192 31.7186C43.3755 32.5693 43.5114 33.4196 43.8179 34.2143C44.1245 35.009 44.5949 35.7303 45.1986 36.3312L41.323 32.4556C40.1399 31.224 38.5341 30.4863 36.829 30.3914C35.1239 30.2964 33.4461 30.8511 32.1336 31.9437C31.4782 32.535 30.9499 33.2534 30.5809 34.0552C30.2119 34.8571 30.0098 35.7256 29.987 36.608C29.9642 37.4904 30.1211 38.3682 30.4483 39.188C30.7754 40.0078 31.2659 40.7526 31.8898 41.3769L31.8411 41.255C30.9074 40.3024 29.6901 39.6782 28.3716 39.4761C27.0532 39.2739 25.7048 39.5047 24.5286 40.1337C23.7139 40.5979 23.0173 41.2439 22.4931 42.0213C21.9688 42.7987 21.6311 43.6866 21.5061 44.6159C21.3811 45.5452 21.4722 46.4908 21.7724 47.3791C22.0725 48.2674 22.5737 49.0745 23.2367 49.7375L30.5492 57.05C30.0222 56.5238 29.391 56.1137 28.6961 55.846C28.0011 55.5783 27.2579 55.459 26.5141 55.4958C25.7703 55.5325 25.0424 55.7244 24.3772 56.0593C23.712 56.3941 23.1243 56.8644 22.6517 57.44C21.8445 58.522 21.4586 59.8608 21.5663 61.2065C21.6739 62.5521 22.2677 63.8126 23.2367 64.7525L53.7786 95.5625C55.9175 97.7116 58.4622 99.4142 61.2647 100.572C64.0672 101.729 67.0718 102.318 70.1039 102.304C73.1359 102.291 76.1351 101.675 78.9271 100.492C81.7191 99.3099 84.2484 97.5844 86.368 95.4162C89.7117 91.9266 92.3026 87.787 93.9798 83.2543C95.657 78.7216 96.3848 73.8925 96.118 69.0669L95.2161 39.5C95.1668 38.8361 94.8678 38.2156 94.3794 37.7634C93.8909 37.3111 93.2493 37.0607 92.5836 37.0625C89.7811 37.0536 87.0839 38.1298 85.0573 40.0656C83.0307 42.0013 81.832 44.6463 81.7123 47.4462Z" fill="#FFD645"/>
<path d="M81.3954 55.3925L54.0466 28.0194C52.9803 26.8913 51.5358 26.1956 49.9891 26.0652C48.4423 25.9348 46.9017 26.3789 45.6616 27.3125C45.0452 27.8133 44.5335 28.4306 44.1557 29.1292C43.778 29.8279 43.5416 30.5941 43.4601 31.3841C43.3786 32.1741 43.4536 32.9724 43.6808 33.7335C43.908 34.4945 44.2829 35.2033 44.7841 35.8194C45.0318 35.4781 45.3273 35.1744 45.6616 34.9175C46.896 33.9778 48.4331 33.5255 49.9797 33.6469C51.5262 33.7683 52.974 34.4548 54.0466 35.5756L77.5929 59.1462L81.3954 55.3925Z" fill="#FFEFB7"/>
<path d="M95.4355 47.105L95.2162 39.5C95.1669 38.8362 94.8679 38.2156 94.3794 37.7634C93.891 37.3111 93.2493 37.0607 92.5837 37.0625C89.7732 37.0607 87.0718 38.1498 85.0484 40.1004C83.0251 42.051 81.8378 44.7107 81.7368 47.5194L81.4199 55.4656L81.7368 55.1244C81.8439 52.3178 83.033 49.6615 85.055 47.7122C87.077 45.7629 89.775 44.6718 92.5837 44.6675C93.2734 44.6602 93.9425 44.9031 94.4668 45.3513C94.9912 45.7995 95.3354 46.4225 95.4355 47.105Z" fill="#FFEFB7"/>
<path d="M81.7123 47.4462L81.3955 55.3925L54.0467 28.0194C52.9804 26.8913 51.5359 26.1956 49.9892 26.0652C48.4424 25.9348 46.9018 26.3789 45.6617 27.3125C44.9997 27.8484 44.4579 28.5177 44.0715 29.2769C43.6851 30.036 43.4629 30.8679 43.4192 31.7186C43.3755 32.5693 43.5114 33.4196 43.8179 34.2143C44.1245 35.009 44.5949 35.7303 45.1986 36.3312L41.323 32.4556C40.1399 31.224 38.5341 30.4863 36.829 30.3914C35.1239 30.2964 33.4461 30.8511 32.1336 31.9437C31.4782 32.535 30.9499 33.2534 30.5809 34.0552C30.2119 34.8571 30.0098 35.7256 29.987 36.608C29.9642 37.4904 30.1211 38.3682 30.4483 39.188C30.7754 40.0078 31.2659 40.7526 31.8898 41.3769L31.8411 41.255C30.9074 40.3024 29.6901 39.6782 28.3716 39.4761C27.0532 39.2739 25.7048 39.5047 24.5286 40.1337C23.7139 40.5979 23.0173 41.2439 22.4931 42.0213C21.9688 42.7987 21.6311 43.6866 21.5061 44.6159C21.3811 45.5452 21.4722 46.4908 21.7724 47.3791C22.0725 48.2674 22.5737 49.0745 23.2367 49.7375L30.5492 57.05C30.0222 56.5238 29.391 56.1137 28.6961 55.846C28.0011 55.5783 27.2579 55.459 26.5141 55.4958C25.7703 55.5325 25.0424 55.7244 24.3772 56.0593C23.712 56.3941 23.1243 56.8644 22.6517 57.44C21.8445 58.522 21.4586 59.8608 21.5663 61.2065C21.6739 62.5521 22.2677 63.8126 23.2367 64.7525L53.7786 95.5625C55.9175 97.7116 58.4622 99.4142 61.2647 100.572C64.0672 101.729 67.0718 102.318 70.1039 102.304C73.1359 102.291 76.1351 101.675 78.9271 100.492C81.7191 99.3099 84.2484 97.5844 86.368 95.4162C89.7117 91.9266 92.3026 87.787 93.9798 83.2543C95.657 78.7216 96.3848 73.8925 96.118 69.0669L95.2161 39.5C95.1668 38.8361 94.8678 38.2156 94.3794 37.7634C93.8909 37.3111 93.2493 37.0607 92.5836 37.0625V37.0625C89.7811 37.0536 87.0839 38.1298 85.0573 40.0656C83.0307 42.0013 81.832 44.6463 81.7123 47.4462V47.4462Z" stroke="#45413C" stroke-width="0.5" stroke-linecap="round" stroke-linejoin="round"/>
<path d="M30.2324 57.0012L45.0037 71.7481" stroke="#45413C" stroke-width="0.5" stroke-linecap="round" stroke-linejoin="round"/>
<path d="M31.8896 41.4012L53.6078 63.1194" stroke="#45413C" stroke-width="0.5" stroke-linecap="round" stroke-linejoin="round"/>
<path d="M45.1982 36.38L62.7726 53.9788" stroke="#45413C" stroke-width="0.5" stroke-linecap="round" stroke-linejoin="round"/>
<path d="M81.3955 55.3925L72.6936 64.0943C71.3338 65.4526 70.2551 67.0656 69.5191 68.841C68.7831 70.6165 68.4043 72.5196 68.4043 74.4415C68.4043 76.3635 68.7831 78.2666 69.5191 80.042C70.2551 81.8175 71.3338 83.4304 72.6936 84.7887V84.7887" stroke="#45413C" stroke-width="0.5" stroke-linecap="round" stroke-linejoin="round"/>
<path d="M58.9214 21.8525C62.7946 22.5139 66.4212 24.1968 69.427 26.7275C72.4055 29.3725 74.669 32.7259 76.0083 36.4775" stroke="#45413C" stroke-width="0.5" stroke-linecap="round" stroke-linejoin="round"/>
<path d="M60.311 15.3444C65.0843 16.1123 69.5632 18.1497 73.2785 21.2431C76.9628 24.4926 79.7566 28.6288 81.3954 33.26" stroke="#45413C" stroke-width="0.5" stroke-linecap="round" stroke-linejoin="round"/>
<path d="M11.4876 59.585C11.1016 63.4832 11.7665 67.4137 13.4132 70.9681C15.1991 74.5235 17.8576 77.5678 21.1401 79.8162" stroke="#45413C" stroke-width="0.5" stroke-linecap="round" stroke-linejoin="round"/>
<path d="M4.83344 59.2437C4.36873 64.0656 5.21069 68.9238 7.27094 73.3081C9.47799 77.6989 12.7558 81.4629 16.8016 84.2525" stroke="#45413C" stroke-width="0.5" stroke-linecap="round" stroke-linejoin="round"/>
</svg>
